<?xml version="1.0" encoding="iso-8859-1"?>
<!-- Generator: Adobe Illustrator 19.0.0, SVG Export Plug-In . SVG Version: 6.00 Build 0)  -->
<svg version="1.1" id="Layer_1" xmlns="http://www.w3.org/2000/svg" xmlns:xlink="http://www.w3.org/1999/xlink" x="0px" y="0px"
	 viewBox="0 0 512 512" style="enable-background:new 0 0 512 512;" xml:space="preserve">
<g className="fillable" >
	<g>
		<path d="M418.133,68.267H51.2c-4.71,0-8.533,3.823-8.533,8.533s3.823,8.533,8.533,8.533h366.933c4.71,0,8.533-3.823,8.533-8.533
			S422.844,68.267,418.133,68.267z"/>
	</g>
</g>
<g className="fillable">
	<g>
		<path d="M445.517,238.933H486.4c4.71,0,8.533-3.823,8.533-8.533V110.933c0-4.71-3.823-8.533-8.533-8.533h-25.6V42.667
			c0-4.71-3.823-8.533-8.533-8.533h-409.6C19.106,34.133,0,53.239,0,76.8v392.533c0,4.71,3.823,8.533,8.533,8.533H486.4
			c4.71,0,8.533-3.823,8.533-8.533V349.867c0-4.71-3.823-8.533-8.533-8.533h-42.667c-30.447,0-54.775-26.709-50.765-57.933
			C396.279,257.587,419.499,238.933,445.517,238.933z M42.667,102.4c-15.787,0-28.279-14.362-25.105-30.703
			C19.925,59.546,31.3,51.2,43.674,51.2h400.06v51.2H42.667z"/>
	</g>
</g>
<g className="fillable">
	<g>
		<path d="M503.467,256h-59.733c-19.942,0-35.951,17.195-33.963,37.547c1.732,17.732,17.673,30.72,35.49,30.72h58.206
			c4.71,0,8.533-3.823,8.533-8.533v-51.2C512,259.823,508.177,256,503.467,256z"/>
	</g>
</g>
<g>
</g>
<g>
</g>
<g>
</g>
<g>
</g>
<g>
</g>
<g>
</g>
<g>
</g>
<g>
</g>
<g>
</g>
<g>
</g>
<g>
</g>
<g>
</g>
<g>
</g>
<g>
</g>
<g>
</g>
</svg>
